<?xml version="1.0" encoding="UTF-8"?><svg id="a" xmlns="http://www.w3.org/2000/svg" viewBox="0 0 644.1 55.4"><defs><style>.c{fill:#343090;stroke:#343090;}.d{fill:none;}</style></defs><g id="b"><rect class="d" width="644.1" height="55.4"/><path class="c" d="M26.8,33.3H11.1l-3.9,9.7H2.3L17.3,6.7h3.4l15,36.3h-5.2l-3.7-9.7Zm-13.7-4.5h11.8l-6-14.6-5.8,14.6Z"/><path class="c" d="M56.3,24.9c0,1.9,.4,3.7,1.1,5.4,.6,1.7,1.7,3.2,2.8,4.5s2.6,2.4,4.3,3c1.7,.9,3.4,1.1,5.4,1.1,2.1,0,4.1-.4,6-1.3,1.9-.9,3.4-1.9,4.9-3.2l3.2,3.2c-1.7,1.7-3.9,3.2-6.2,4.3-2.4,1.1-4.9,1.5-7.7,1.5-2.6,0-4.9-.4-7.3-1.5-2.1-1.1-4.1-2.4-5.8-4.1-1.7-1.7-3-3.7-3.9-6-.9-2.4-1.3-4.7-1.3-7.1,0-2.6,.4-4.9,1.3-7.1,.9-2.4,2.1-4.3,3.9-6s3.7-3,5.8-4.1c2.1-1.1,4.7-1.5,7.3-1.5s5.2,.4,7.5,1.5c2.4,1.1,4.3,2.4,6,4.1l-3.4,3c-1.3-1.3-2.8-2.4-4.5-3-1.7-.9-3.4-1.1-5.6-1.1-1.9,0-3.7,.4-5.4,1.1-1.7,.9-3,1.7-4.3,3.2s-2.1,2.8-2.8,4.5c-.7,1.7-1.3,3.7-1.3,5.6Z"/><path class="c" d="M125.2,33.3h-15.7l-3.9,9.7h-4.9L115.7,6.7h3.4l15,36.3h-5.2l-3.7-9.7Zm-13.7-4.5h11.8l-6-14.6-5.8,14.6Z"/><path class="c" d="M153.6,6.6h12c3,0,5.6,.4,8,1.5,2.4,.9,4.3,2.1,5.8,3.9,1.5,1.7,2.8,3.7,3.7,5.8s1.3,4.5,1.3,7.1-.4,4.9-1.3,7.1c-.9,2.1-2.1,4.1-3.7,5.8-1.5,1.7-3.7,3-5.8,3.9-2.4,.9-4.9,1.3-8,1.3h-12V6.6Zm25.8,18.3c0-1.9-.2-3.9-.9-5.6-.6-1.7-1.5-3.2-2.8-4.3-1.3-1.3-2.6-2.1-4.3-3-1.7-.6-3.7-1.1-5.8-1.1h-7.3v27.7h7.3c2.1,0,4.1-.4,5.8-1.1,1.7-.6,3.2-1.7,4.3-2.8,1.3-1.3,2.1-2.6,2.8-4.3,.5-1.9,.9-3.6,.9-5.5Z"/><path class="c" d="M204.3,6.6h23.6v4.3h-18.9v11h16.5v4.3h-16.5v12.3h19.8v4.3h-24.3V6.7h-.2v-.1Z"/><path class="c" d="M287.5,42.9h-4.7V15.8l-14,21.9h-1.3l-14-21.9v27.1h-4.7V6.6h4.3l15,23.9,15-23.9h4.3V42.9h.1Z"/><path class="c" d="M323.6,42.9h-4.5v-15.9l-13.1-20.4h5.6l9.9,15.7,9.9-15.7h5.6l-13.2,20.4v15.9h-.2Z"/><path class="c" d="M395.2,35.4l11.4-28.8h4.9l-14.6,36.3h-3.4l-14.7-36.3h4.9l11.5,28.8Z"/><path class="c" d="M434.5,42.9h-4.7V6.6h4.7V42.9Z"/><path class="c" d="M456.2,6.6h12c3,0,5.6,.4,8,1.5,2.4,.9,4.3,2.1,5.8,3.9,1.5,1.7,2.8,3.7,3.7,5.8s1.3,4.5,1.3,7.1-.4,4.9-1.3,7.1c-.9,2.1-2.1,4.1-3.7,5.8-1.5,1.7-3.7,3-5.8,3.9-2.4,.9-4.9,1.3-8,1.3h-12V6.6Zm25.8,18.3c0-1.9-.2-3.9-.9-5.6-.6-1.7-1.5-3.2-2.8-4.3-1.3-1.3-2.6-2.1-4.3-3-1.7-.6-3.7-1.1-5.8-1.1h-7.3v27.7h7.3c2.1,0,4.1-.4,5.8-1.1,1.7-.6,3.2-1.7,4.3-2.8,1.3-1.3,2.1-2.6,2.8-4.3,.7-1.9,.9-3.6,.9-5.5Z"/><path class="c" d="M506.9,6.6h23.6v4.3h-18.9v11h16.5v4.3h-16.5v12.3h19.8v4.3h-24.3V6.7h-.2v-.1Z"/><path class="c" d="M548.8,24.9c0-2.6,.4-4.9,1.3-7.1,.9-2.4,2.1-4.3,3.9-6,1.7-1.7,3.7-3,5.8-4.1s4.7-1.5,7.3-1.5,4.9,.4,7.3,1.5c2.1,1.1,4.1,2.4,5.8,4.1,1.7,1.7,3,3.7,3.9,6,.9,2.4,1.3,4.7,1.3,7.1,0,2.6-.4,4.9-1.3,7.1s-2.1,4.3-3.9,6c-1.7,1.7-3.7,3-5.8,4.1s-4.7,1.5-7.3,1.5-4.9-.4-7.3-1.5c-2.1-1.1-4.1-2.4-5.8-4.1-1.7-1.7-3-3.7-3.9-6-.8-2.2-1.3-4.7-1.3-7.1Zm5,0c0,1.9,.4,3.7,1.1,5.4,.6,1.7,1.7,3.2,2.8,4.5s2.6,2.4,4.3,3c1.7,.9,3.4,1.1,5.4,1.1s3.7-.4,5.4-1.1c1.7-.9,3-1.7,4.3-3s2.1-2.8,2.8-4.5c.6-1.7,1.1-3.4,1.1-5.4s-.4-3.7-1.1-5.4c-.6-1.7-1.7-3.2-2.8-4.5-1.3-1.3-2.6-2.4-4.3-3.2-1.7-.9-3.4-1.1-5.4-1.1s-3.7,.4-5.4,1.1c-1.7,.9-3,1.7-4.3,3.2s-2.1,2.8-2.8,4.5c-.7,1.7-1.1,3.5-1.1,5.4Z"/><path class="c" d="M623.2,13.5c-1.1-.9-2.1-1.7-3.4-2.4s-2.6-.9-4.1-.9c-1.3,0-2.4,.2-3.2,.4-.9,.2-1.5,.6-2.1,1.3-.4,.4-.9,1.1-1.1,1.7s-.4,1.3-.4,1.9c0,1.3,.4,2.4,1.3,3.2,.9,.9,2.4,1.7,4.3,2.1l4.5,1.3c3.2,.9,5.6,2.1,7.3,3.9,1.7,1.7,2.6,3.9,2.6,6.4,0,1.3-.2,2.8-.9,4.1s-1.3,2.4-2.6,3.4c-1.1,1.1-2.4,1.7-4.1,2.4s-3.4,.9-5.6,.9c-1.1,0-2.1-.2-3.4-.4-1.3-.2-2.1-.6-3.4-1.1-1.1-.4-2.1-1.1-3-1.7-.9-.6-1.9-1.5-2.6-2.4l3.4-3c1.5,1.5,3,2.8,4.5,3.4,1.5,.6,3,1.1,4.5,1.1,1.3,0,2.6-.2,3.7-.4,1.1-.4,1.9-.9,2.6-1.3,.6-.6,1.1-1.3,1.5-1.9,.4-.9,.4-1.5,.4-2.4,0-1.7-.4-2.8-1.3-3.9-.9-.9-2.4-1.7-4.7-2.4l-4.7-1.5c-3-.9-5.4-2.1-6.9-3.7-1.5-1.5-2.4-3.4-2.4-5.8,0-1.3,.2-2.4,.9-3.4,.4-1.1,1.3-2.1,2.4-3,1.1-.9,2.1-1.5,3.7-2.1,1.5-.6,3-.9,4.9-.9,1.7,0,3.7,.4,5.6,1.1,1.9,.6,3.7,1.7,4.9,3.2l-3.1,2.8Z"/></g></svg>