<?xml version="1.0" encoding="utf-8"?>
<!-- Generator: Adobe Illustrator 26.2.1, SVG Export Plug-In . SVG Version: 6.00 Build 0)  -->
<svg version="1.1" id="logo" xmlns="http://www.w3.org/2000/svg" xmlns:xlink="http://www.w3.org/1999/xlink" x="0px" y="0px"
	 viewBox="0 0 500 500" style="enable-background:new 0 0 500 500;" xml:space="preserve">
<style type="text/css">
	.st0{fill:#343090;}
	.st1{fill:#FFFFFF;}
</style>
<path id="Background" class="st0" d="M409.1,475H90.9C54.5,475,25,445.5,25,409.1V90.9C25,54.5,54.5,25,90.9,25h318.3
	c36.4,0,65.9,29.5,65.9,65.9v318.3C475,445.5,445.5,475,409.1,475z"/>
<g id="Icon">
	<path class="st1" d="M250.4,287.4c0,0,60.3-28,98.8-46c0,0,2.7-1.7,5.5-0.1c2.8,1.7,2.6,4.5,2.6,4.5v72.3c0,1.3-0.5,2.6-1.6,3.7
		c-13.7,13.9-29.6,25-47.3,32.6c-18.2,8.2-37.7,12.1-57.8,12.1c-20.1,0-39.6-4.2-57.8-12.1c-5.8-2.6-11.6-5.5-17.2-8.9
		c-2.6-1.3-3.4-4.7-1.8-7.1c1.3-2.6,4.8-3.4,7.1-1.8c5,2.9,10.3,5.8,15.8,8.2c16.9,7.4,35.1,11.1,53.6,11.1
		c18.5,0,36.7-3.7,53.8-11.1c15.6-6.8,29.8-16.6,42.2-28.9V254l-93.7,43.9c-0.8,0.3-1.6,0.5-2.4,0.5c-0.8,0-1.6-0.3-2.4-0.5
		L176,264.2c-2.6-1.3-4-4.5-2.6-7.1c1.3-2.6,4.5-3.9,7.1-2.6L250.4,287.4z"/>
	<path class="st1" d="M443.4,197.9l-191-90.1c-1.3-0.8-3.2-0.8-4.5,0L56.6,197.9c-1.8,0.8-2.9,2.6-2.9,4.7c0,2.1,1.1,4,2.9,4.7
		l64.8,30.6c2.6,1.3,5.8,0,7.1-2.6c1.3-2.6,0-5.8-2.6-7.1l-54.8-25.8L250,118.6l178.6,84.1l-56.9,26.9c-2.6,1.3-3.7,4.5-2.6,7.1
		c0.8,1.8,2.9,2.9,4.7,2.9c0.8,0,1.6-0.3,2.4-0.5l67.2-31.6c1.8-0.8,2.9-2.6,2.9-4.7C446.3,200.5,445.2,198.7,443.4,197.9z"/>
	<path class="st1" d="M254.7,194c1.3,2.6,0.3,5.8-2.4,7.1L154.5,249v138.5c0,2.9-2.4,5.3-5.3,5.3c-2.9,0-5.3-2.4-5.3-5.3V243.8
		c0,0,0-0.9,0.8-1.5c0.8-0.6,1-0.6,1-0.6l101.7-50.1C250.2,190.3,253.4,191.3,254.7,194z"/>
</g>
<g>
</g>
<g>
</g>
<g>
</g>
<g>
</g>
<g>
</g>
<g>
</g>
</svg>
