<?xml version="1.0" encoding="utf-8"?>
<!-- Generator: Adobe Illustrator 17.0.0, SVG Export Plug-In . SVG Version: 6.00 Build 0)  -->
<!DOCTYPE svg PUBLIC "-//W3C//DTD SVG 1.1//EN" "http://www.w3.org/Graphics/SVG/1.1/DTD/svg11.dtd">
<svg version="1.1" id="a" xmlns="http://www.w3.org/2000/svg" xmlns:xlink="http://www.w3.org/1999/xlink" x="0px" y="0px"
	 width="2048px" height="2048px" viewBox="0 0 2048 2048" enable-background="new 0 0 2048 2048" xml:space="preserve">
<g id="b">
	<path fill="#FF0000" stroke="#0000FF" d="M1761.958,690.99c-124.136,0-226.904,70.819-269.029,171.348
		c-19.068-214.531-341.272-151.059-496.341-160.156v423.283L817.303,698.112H641.885l-164.836,391.944l59.423,88.727h636.35v-100.53
		h37.648l66.952,100.53h200.246l-89.134-129.427c36.223-17.501,64.307-41.921,82.215-73.057
		c2.646,82.622,41.921,154.865,103.582,202.891h367.728C2148.387,1027.541,2030.397,680.041,1761.958,690.99z M674.649,1049.153
		l54.131-143.469l53.724,143.469H674.649z M1318.121,901.614c2.89,65.161-99.044,49.593-143.876,51.079V849.518
		c44.892,1.974,149.676-15.385,144.283,52.503h-0.407V901.614L1318.121,901.614z M1871.849,967.345
		c0.448,157.816-224.177,152.891-221.206-3.256C1650.195,806.273,1874.82,811.219,1871.849,967.345z"/>
	<path fill="#FF0000" stroke="#0000FF" d="M407.451,1049.56c110.42-41.27,139.073-208.772,55.963-286.937
		c-65.67-88.259-341.048-54.437-449.128-60.44v477.211h176.639v-100.53h37.648l65.955,100.53h200.083l-87.139-129.834H407.451z
		 M335.411,901.614c2.89,65.283-99.431,49.553-144.283,51.079V849.518C235.858,851.532,340.397,834.133,335.411,901.614
		L335.411,901.614z"/>
</g>
<g id="c">
	<path fill="#FF0000" stroke="#0000FF" d="M83.151,1323.663H34.432l-12.108,30.098H7.143l46.541-112.638h10.541l46.541,112.638
		H94.628L83.151,1323.663z M40.639,1309.703h36.61l-18.62-45.299C58.629,1264.403,40.639,1309.703,40.639,1309.703z"/>
	<path fill="#FF0000" stroke="#0000FF" d="M174.686,1297.594c0,5.901,1.241,11.477,3.419,16.748c1.852,5.271,5.271,9.931,8.69,13.96
		c3.419,4.029,8.059,7.448,13.35,9.3c5.271,2.788,10.541,3.419,16.748,3.419c6.512,0,12.719-1.241,18.62-4.029
		c5.902-2.788,10.541-5.901,15.202-9.931l9.931,9.931c-5.271,5.271-12.108,9.931-19.231,13.35c-7.448,3.419-15.202,4.66-23.891,4.66
		c-8.059,0-15.202-1.241-22.65-4.66c-6.512-3.419-12.719-7.448-17.99-12.719c-5.271-5.271-9.3-11.478-12.108-18.62
		c-2.788-7.448-4.029-14.591-4.029-22.039c0-8.059,1.241-15.202,4.029-22.039c2.788-7.448,6.512-13.35,12.108-18.62
		c5.596-5.271,11.477-9.3,17.99-12.719c6.512-3.419,14.591-4.66,22.65-4.66c8.059,0,16.138,1.241,23.281,4.66
		c7.448,3.419,13.35,7.448,18.62,12.719l-10.541,9.3c-4.029-4.029-8.69-7.448-13.96-9.3c-5.271-2.788-10.541-3.419-17.379-3.419
		c-5.902,0-11.477,1.241-16.748,3.419c-5.271,2.788-9.3,5.271-13.35,9.931c-4.05,4.66-6.512,8.69-8.69,13.96
		c-2.177,5.271-4.029,11.478-4.029,17.379L174.686,1297.594z"/>
	<path fill="#FF0000" stroke="#0000FF" d="M388.485,1323.663h-48.718l-12.108,30.098h-15.202l46.541-112.638h10.541l46.541,112.638
		h-16.138l-11.478-30.098H388.485z M345.973,1309.703h36.61l-18.62-45.299L345.973,1309.703L345.973,1309.703z"/>
	<path fill="#FF0000" stroke="#0000FF" d="M476.601,1240.818h37.241c9.3,0,17.379,1.241,24.827,4.66
		c7.448,2.788,13.35,6.512,17.99,12.108c4.66,5.271,8.69,11.478,11.478,17.99c2.788,6.512,4.029,13.96,4.029,22.039
		c0,8.079-1.241,15.202-4.029,22.039c-2.788,6.512-6.512,12.719-11.478,17.99c-4.66,5.271-11.478,9.3-17.99,12.108
		c-7.448,2.788-15.202,4.029-24.827,4.029h-37.241v-112.943L476.601,1240.818z M556.658,1297.594c0-5.902-0.61-12.108-2.788-17.379
		c-1.852-5.271-4.66-9.931-8.69-13.35c-4.029-4.029-8.059-6.512-13.35-9.3c-5.271-1.852-11.478-3.419-17.99-3.419h-22.65v85.959
		h22.65c6.512,0,12.719-1.241,17.99-3.419c5.271-1.852,9.931-5.271,13.35-8.69c4.029-4.029,6.512-8.059,8.69-13.35
		c1.547-5.901,2.788-11.172,2.788-17.074V1297.594z"/>
	<path fill="#FF0000" stroke="#0000FF" d="M633.908,1240.818h73.22v13.35h-58.649v34.127h51.201v13.35h-51.201v38.157h61.437v13.35
		h-75.397v-112.007h-0.61v-0.305L633.908,1240.818z"/>
	<path fill="#FF0000" stroke="#0000FF" d="M892.07,1353.456h-14.591v-84.087l-43.448,67.949h-4.029l-43.448-67.949v84.087h-14.591
		v-112.638h13.35l46.541,74.156l46.541-74.156h13.35v112.638h0.305L892.07,1353.456z"/>
	<path fill="#FF0000" stroke="#0000FF" d="M1004.077,1353.456h-13.96v-49.329l-40.639-63.289h17.379l30.708,48.718l30.708-48.718
		h17.379l-40.965,63.289v49.329H1004.077L1004.077,1353.456z"/>
	<path fill="#FF0000" stroke="#0000FF" d="M1226.24,1330.175l35.369-89.358h15.202l-45.3,112.638h-10.541l-45.605-112.638h15.202
		L1226.24,1330.175z"/>
	<path fill="#FF0000" stroke="#0000FF" d="M1348.198,1353.456h-14.591v-112.638h14.591V1353.456z"/>
	<path fill="#FF0000" stroke="#0000FF" d="M1415.517,1240.818h37.241c9.3,0,17.379,1.241,24.827,4.66
		c7.448,2.788,13.35,6.512,17.99,12.108c4.66,5.271,8.69,11.478,11.478,17.99c2.788,6.512,4.029,13.96,4.029,22.039
		c0,8.079-1.241,15.202-4.029,22.039c-2.788,6.512-6.512,12.719-11.478,17.99c-4.66,5.271-11.478,9.3-17.99,12.108
		c-7.448,2.788-15.202,4.029-24.827,4.029h-37.241v-112.943V1240.818z M1495.574,1297.594c0-5.902-0.61-12.108-2.788-17.379
		c-1.852-5.271-4.66-9.931-8.69-13.35c-4.029-4.029-8.059-6.512-13.35-9.3c-5.271-1.852-11.478-3.419-17.99-3.419h-22.65v85.959
		h22.65c6.512,0,12.719-1.241,17.99-3.419c5.271-1.852,9.931-5.271,13.35-8.69c4.029-4.029,6.512-8.059,8.69-13.35
		c2.177-5.901,2.788-11.172,2.788-17.074V1297.594z"/>
	<path fill="#FF0000" stroke="#0000FF" d="M1572.844,1240.818h73.22v13.35h-58.649v34.127h51.201v13.35h-51.201v38.157h61.437v13.35
		h-75.397v-112.007h-0.61v-0.305V1240.818z"/>
	<path fill="#FF0000" stroke="#0000FF" d="M1702.841,1297.594c0-8.059,1.241-15.202,4.029-22.039
		c2.788-7.448,6.512-13.35,12.108-18.62c5.271-5.271,11.478-9.3,17.99-12.719s14.591-4.66,22.65-4.66s15.202,1.241,22.65,4.66
		c6.512,3.419,12.719,7.448,17.99,12.719c5.271,5.271,9.3,11.478,12.108,18.62c2.788,7.448,4.029,14.591,4.029,22.039
		c0,8.059-1.241,15.202-4.029,22.039s-6.512,13.35-12.108,18.62c-5.271,5.271-11.478,9.3-17.99,12.719s-14.591,4.66-22.65,4.66
		s-15.201-1.241-22.65-4.66c-6.512-3.419-12.719-7.448-17.99-12.719s-9.3-11.478-12.108-18.62
		C1704.387,1312.816,1702.841,1305.042,1702.841,1297.594z M1718.348,1297.594c0,5.901,1.241,11.477,3.419,16.748
		c1.852,5.271,5.271,9.931,8.69,13.96s8.059,7.448,13.35,9.3c5.271,2.788,10.541,3.419,16.748,3.419s11.478-1.241,16.748-3.419
		c5.271-2.788,9.3-5.271,13.35-9.3c4.05-4.029,6.512-8.69,8.69-13.96c1.852-5.271,3.419-10.541,3.419-16.748
		c0-6.207-1.241-11.478-3.419-16.748c-1.852-5.271-5.271-9.931-8.69-13.96c-4.029-4.029-8.059-7.448-13.35-9.931
		c-5.271-2.788-10.541-3.419-16.748-3.419s-11.478,1.241-16.748,3.419c-5.271,2.788-9.3,5.271-13.35,9.931
		c-4.05,4.66-6.512,8.69-8.69,13.96C1719.589,1286.117,1718.348,1291.713,1718.348,1297.594z"/>
	<path fill="#FF0000" stroke="#0000FF" d="M1933.693,1262.226c-3.419-2.788-6.512-5.271-10.541-7.448s-8.059-2.788-12.719-2.788
		c-4.029,0-7.448,0.61-9.931,1.241c-2.788,0.61-4.66,1.852-6.512,4.029c-1.241,1.241-2.788,3.419-3.419,5.271
		c-0.631,1.852-1.241,4.029-1.241,5.901c0,4.029,1.241,7.448,4.029,9.931c2.788,2.788,7.448,5.271,13.35,6.512l13.96,4.029
		c9.931,2.788,17.379,6.512,22.65,12.108c5.271,5.271,8.059,12.108,8.059,19.862c0,4.029-0.61,8.69-2.788,12.719
		c-2.177,4.029-4.029,7.448-8.059,10.541c-3.419,3.419-7.448,5.271-12.719,7.448s-10.541,2.788-17.379,2.788
		c-3.419,0-6.512-0.61-10.541-1.241c-4.029-0.61-6.512-1.852-10.541-3.419c-3.419-1.241-6.512-3.419-9.3-5.271
		s-5.901-4.66-8.059-7.448l10.541-9.3c4.66,4.66,9.3,8.689,13.96,10.541c4.66,1.852,9.3,3.419,13.96,3.419
		c4.029,0,8.059-0.611,11.478-1.241c3.419-1.241,5.902-2.788,8.059-4.029c1.852-1.852,3.419-4.029,4.66-5.901
		c1.241-2.788,1.241-4.66,1.241-7.448c0-5.271-1.241-8.689-4.029-12.108c-2.788-2.788-7.448-5.271-14.591-7.448l-14.591-4.66
		c-9.3-2.788-16.748-6.512-21.408-11.478c-4.66-4.66-7.448-10.541-7.448-17.99c0-4.029,0.61-7.448,2.788-10.541
		c1.241-3.419,4.029-6.512,7.448-9.3c3.419-2.788,6.512-4.66,11.477-6.512c4.66-1.852,9.3-2.788,15.202-2.788
		c5.271,0,11.478,1.241,17.379,3.419c5.902,1.852,11.478,5.271,15.202,9.931l-9.626,8.689L1933.693,1262.226z"/>
</g>
</svg>
