<?xml version="1.0" encoding="utf-8"?>
<!-- Generator: Adobe Illustrator 26.2.1, SVG Export Plug-In . SVG Version: 6.00 Build 0)  -->
<svg version="1.1" id="Layer_1" xmlns="http://www.w3.org/2000/svg" xmlns:xlink="http://www.w3.org/1999/xlink" x="0px" y="0px"
	 viewBox="0 0 1080 1080" style="enable-background:new 0 0 1080 1080;" xml:space="preserve">
<style type="text/css">
	.st0{fill:#343090;}
	.st1{fill:#343090;stroke:#343090;stroke-miterlimit:10;}
	.st2{fill:none;}
</style>
<g id="Raro">
	<path class="st0" d="M605.7,573.1c14.7-7.1,23.8-19.2,23.8-36.8V536c0-12.4-3.8-21.3-11-28.5c-8.4-8.5-22.1-13.8-43.6-13.8h-59.1
		v109.1h40.4v-23h8.6l38.2,58.1h46.2L605.7,573.1z M589.2,539.3c0,7.4-5.9,11.7-15.5,11.7h-17.5v-23.6h17.6
		c9.4,0,15.4,3.8,15.4,11.6V539.3z"/>
	<path class="st1" d="M915.4,491.1c-28.4,0-51.9,16.2-61.5,39.2c-1.1-9.4-4.6-16.7-10.8-22.8c-8.5-8.5-22.1-13.8-43.6-13.8h-59.1
		v96.8l-41-97.7h-40.1l-37.7,89.6l13.6,20.3h145.5v-23h8.6l15.3,23h45.8l-20.4-29.6c8.3-4,14.7-9.6,18.8-16.7
		c0.6,18.9,9.6,35.4,23.7,46.4h84.1c14.9-11.4,24.2-29,24.2-48.8v-0.4C981.2,518.7,952.7,491.1,915.4,491.1z M666.8,573l12.4-32.8
		l12.3,32.8H666.8z M813.9,539.3c0,7.4-5.9,11.7-15.5,11.7H781v-23.6h17.6c9.4,0,15.4,3.8,15.4,11.6v0.4H813.9z M940.5,554.3
		c0,14.2-9.7,26.9-25.1,26.9c-15.5,0-25.5-12.9-25.5-27.2v-0.4c0-14.2,9.7-26.9,25.1-26.9c15.5,0,25.5,12.9,25.5,27.2V554.3z"/>
</g>
<g id="Logo">
	<path class="st1" d="M286.7,575.4c0,0,57.5-26.5,94.3-43.5c0,0,2.5-1.6,5.2-0.1s2.5,4.3,2.5,4.3v68.4c0,1.2-0.5,2.5-1.5,3.5
		c-13.1,13.2-28.2,23.6-45.1,30.8c-17.4,7.7-36,11.4-55.2,11.4s-37.8-4-55.2-11.4c-5.5-2.5-11.1-5.2-16.4-8.5
		c-2.5-1.2-3.3-4.5-1.8-6.7c1.3-2.5,4.5-3.2,6.8-1.7c4.8,2.7,9.8,5.5,15.1,7.7c16.1,7,33.5,10.4,51.1,10.4s35-3.5,51.4-10.4
		c14.9-6.5,28.5-15.7,40.3-27.4v-58.5L289,585.3c-0.8,0.2-1.5,0.5-2.3,0.5c-0.8,0-1.5-0.2-2.3-0.5l-68.8-31.8
		c-2.5-1.2-3.8-4.2-2.5-6.7c1.3-2.5,4.3-3.7,6.8-2.5L286.7,575.4z"/>
	<path class="st0" d="M470.9,490.7l-182.3-85.2c-1.3-0.7-3-0.7-4.3,0l-182.6,85.2c-1.8,0.7-2.8,2.5-2.8,4.5c0,2,1,3.7,2.8,4.5
		l61.9,28.9c2.5,1.2,5.5,0,6.8-2.5c1.3-2.5,0-5.5-2.5-6.7L115.6,495l170.8-79.2l170.5,79.5l-54.3,25.4c-2.5,1.2-3.5,4.2-2.5,6.7
		c0.8,1.7,2.8,2.7,4.5,2.7c0.8,0,1.5-0.2,2.3-0.5l64.1-29.9c1.8-0.7,2.8-2.5,2.8-4.5C473.7,493.2,472.7,491.5,470.9,490.7z"/>
	<path class="st0" d="M290.8,487c1.3,2.5,0.3,5.5-2.3,6.7l-93.3,45.3V670c0,2.7-2.3,5-5,5c-2.8,0-5-2.2-5-5V534.1c0,0,0-0.8,0.8-1.4
		c0.8-0.5,1-0.6,1-0.6l97.1-47.3C286.5,483.6,289.6,484.6,290.8,487z"/>
</g>
<g id="AcademyVideos">
	<rect x="659.5" y="617.9" class="st2" width="299.7" height="25.8"/>
	<path class="st1" d="M672,633.4h-7.3l-1.8,4.5h-2.3l7-16.9h1.6l7,16.9h-2.4L672,633.4z M665.6,631.3h5.5l-2.8-6.8L665.6,631.3z"/>
	<path class="st1" d="M685.7,629.5c0,0.9,0.2,1.7,0.5,2.5c0.3,0.8,0.8,1.5,1.3,2.1s1.2,1.1,2,1.4c0.8,0.4,1.6,0.5,2.5,0.5
		c1,0,1.9-0.2,2.8-0.6c0.9-0.4,1.6-0.9,2.3-1.5l1.5,1.5c-0.8,0.8-1.8,1.5-2.9,2c-1.1,0.5-2.3,0.7-3.6,0.7c-1.2,0-2.3-0.2-3.4-0.7
		c-1-0.5-1.9-1.1-2.7-1.9s-1.4-1.7-1.8-2.8c-0.4-1.1-0.6-2.2-0.6-3.3c0-1.2,0.2-2.3,0.6-3.3c0.4-1.1,1-2,1.8-2.8s1.7-1.4,2.7-1.9
		c1-0.5,2.2-0.7,3.4-0.7c1.2,0,2.4,0.2,3.5,0.7c1.1,0.5,2,1.1,2.8,1.9l-1.6,1.4c-0.6-0.6-1.3-1.1-2.1-1.4c-0.8-0.4-1.6-0.5-2.6-0.5
		c-0.9,0-1.7,0.2-2.5,0.5c-0.8,0.4-1.4,0.8-2,1.5s-1,1.3-1.3,2.1S685.7,628.6,685.7,629.5z"/>
	<path class="st1" d="M717.8,633.4h-7.3l-1.8,4.5h-2.3l7-16.9h1.6l7,16.9h-2.4L717.8,633.4z M711.4,631.3h5.5l-2.8-6.8L711.4,631.3z
		"/>
	<path class="st1" d="M731,621h5.6c1.4,0,2.6,0.2,3.7,0.7c1.1,0.4,2,1,2.7,1.8s1.3,1.7,1.7,2.7c0.4,1,0.6,2.1,0.6,3.3
		c0,1.2-0.2,2.3-0.6,3.3c-0.4,1-1,1.9-1.7,2.7c-0.7,0.8-1.7,1.4-2.7,1.8c-1.1,0.4-2.3,0.6-3.7,0.6H731V621z M743,629.5
		c0-0.9-0.1-1.8-0.4-2.6c-0.3-0.8-0.7-1.5-1.3-2c-0.6-0.6-1.2-1-2-1.4c-0.8-0.3-1.7-0.5-2.7-0.5h-3.4v12.9h3.4c1,0,1.9-0.2,2.7-0.5
		c0.8-0.3,1.5-0.8,2-1.3c0.6-0.6,1-1.2,1.3-2C742.8,631.2,743,630.4,743,629.5z"/>
	<path class="st1" d="M754.6,621h11v2h-8.8v5.1h7.7v2h-7.7v5.7h9.2v2h-11.3V621z"/>
	<path class="st1" d="M793.3,637.9h-2.2v-12.6l-6.5,10.2h-0.6l-6.5-10.2v12.6h-2.2V621h2l7,11.1l7-11.1h2V637.9z"/>
	<path class="st1" d="M810.1,637.9H808v-7.4l-6.1-9.5h2.6l4.6,7.3l4.6-7.3h2.6l-6.1,9.5V637.9z"/>
	<path class="st1" d="M843.4,634.4l5.3-13.4h2.3l-6.8,16.9h-1.6l-6.8-16.9h2.3L843.4,634.4z"/>
	<path class="st1" d="M861.7,637.9h-2.2V621h2.2V637.9z"/>
	<path class="st1" d="M871.8,621h5.6c1.4,0,2.6,0.2,3.7,0.7c1.1,0.4,2,1,2.7,1.8s1.3,1.7,1.7,2.7c0.4,1,0.6,2.1,0.6,3.3
		c0,1.2-0.2,2.3-0.6,3.3c-0.4,1-1,1.9-1.7,2.7c-0.7,0.8-1.7,1.4-2.7,1.8c-1.1,0.4-2.3,0.6-3.7,0.6h-5.6V621z M883.8,629.5
		c0-0.9-0.1-1.8-0.4-2.6c-0.3-0.8-0.7-1.5-1.3-2c-0.6-0.6-1.2-1-2-1.4c-0.8-0.3-1.7-0.5-2.7-0.5H874v12.9h3.4c1,0,1.9-0.2,2.7-0.5
		c0.8-0.3,1.5-0.8,2-1.3c0.6-0.6,1-1.2,1.3-2C883.7,631.2,883.8,630.4,883.8,629.5z"/>
	<path class="st1" d="M895.4,621h11v2h-8.8v5.1h7.7v2h-7.7v5.7h9.2v2h-11.3V621z"/>
	<path class="st1" d="M914.9,629.5c0-1.2,0.2-2.3,0.6-3.3c0.4-1.1,1-2,1.8-2.8s1.7-1.4,2.7-1.9c1-0.5,2.2-0.7,3.4-0.7
		c1.2,0,2.3,0.2,3.4,0.7c1,0.5,1.9,1.1,2.7,1.9s1.4,1.7,1.8,2.8s0.6,2.2,0.6,3.3c0,1.2-0.2,2.3-0.6,3.3s-1,2-1.8,2.8
		s-1.7,1.4-2.7,1.9c-1,0.5-2.2,0.7-3.4,0.7c-1.2,0-2.3-0.2-3.4-0.7c-1-0.5-1.9-1.1-2.7-1.9s-1.4-1.7-1.8-2.8
		C915.1,631.8,914.9,630.6,914.9,629.5z M917.2,629.5c0,0.9,0.2,1.7,0.5,2.5c0.3,0.8,0.8,1.5,1.3,2.1s1.2,1.1,2,1.4
		c0.8,0.4,1.6,0.5,2.5,0.5c0.9,0,1.7-0.2,2.5-0.5c0.8-0.4,1.4-0.8,2-1.4c0.6-0.6,1-1.3,1.3-2.1c0.3-0.8,0.5-1.6,0.5-2.5
		c0-0.9-0.2-1.7-0.5-2.5s-0.8-1.5-1.3-2.1c-0.6-0.6-1.2-1.1-2-1.5c-0.8-0.4-1.6-0.5-2.5-0.5c-0.9,0-1.7,0.2-2.5,0.5
		c-0.8,0.4-1.4,0.8-2,1.5s-1,1.3-1.3,2.1S917.2,628.6,917.2,629.5z"/>
	<path class="st1" d="M949.5,624.2c-0.5-0.4-1-0.8-1.6-1.1c-0.6-0.3-1.2-0.4-1.9-0.4c-0.6,0-1.1,0.1-1.5,0.2c-0.4,0.1-0.7,0.3-1,0.6
		c-0.2,0.2-0.4,0.5-0.5,0.8s-0.2,0.6-0.2,0.9c0,0.6,0.2,1.1,0.6,1.5c0.4,0.4,1.1,0.8,2,1l2.1,0.6c1.5,0.4,2.6,1,3.4,1.8
		c0.8,0.8,1.2,1.8,1.2,3c0,0.6-0.1,1.3-0.4,1.9s-0.6,1.1-1.2,1.6c-0.5,0.5-1.1,0.8-1.9,1.1s-1.6,0.4-2.6,0.4c-0.5,0-1-0.1-1.6-0.2
		s-1-0.3-1.6-0.5c-0.5-0.2-1-0.5-1.4-0.8s-0.9-0.7-1.2-1.1l1.6-1.4c0.7,0.7,1.4,1.3,2.1,1.6c0.7,0.3,1.4,0.5,2.1,0.5
		c0.6,0,1.2-0.1,1.7-0.2c0.5-0.2,0.9-0.4,1.2-0.6c0.3-0.3,0.5-0.6,0.7-0.9c0.2-0.4,0.2-0.7,0.2-1.1c0-0.8-0.2-1.3-0.6-1.8
		c-0.4-0.4-1.1-0.8-2.2-1.1l-2.2-0.7c-1.4-0.4-2.5-1-3.2-1.7s-1.1-1.6-1.1-2.7c0-0.6,0.1-1.1,0.4-1.6c0.2-0.5,0.6-1,1.1-1.4
		s1-0.7,1.7-1c0.7-0.3,1.4-0.4,2.3-0.4c0.8,0,1.7,0.2,2.6,0.5c0.9,0.3,1.7,0.8,2.3,1.5L949.5,624.2z"/>
</g>
</svg>
