<?xml version="1.0" encoding="UTF-8"?><svg id="a" xmlns="http://www.w3.org/2000/svg" viewBox="0 0 1000.31 316.5"><defs><style>.b{fill:#343090;stroke:#343090;}</style></defs><path class="b" d="M244.8,97.6v-.6c0-26.6-8.2-45.8-23.6-61.3-18-18.3-47.5-29.7-93.7-29.7H.5V240.5H87.3v-49.4h18.5l82.1,124.9h99.3l-93.5-139.3c31.6-15.3,51.1-41.3,51.1-79.1Zm-86.5,6.4c0,15.9-12.7,25.1-33.3,25.1h-37.6v-50.7h37.8c20.2,0,33.1,8.2,33.1,24.9v.7Z"/><path class="b" d="M859.3,.5c-61,0-111.5,34.8-132.2,84.2-2.4-20.2-9.9-35.9-23.2-49-18.2-18.3-47.5-29.7-93.7-29.7h-127V214L395.1,4h-86.2l-81,192.6,29.2,43.6h312.7v-49.4h18.5l32.9,49.4h98.4l-43.8-63.6c17.8-8.6,31.6-20.6,40.4-35.9,1.3,40.6,20.6,76.1,50.9,99.7h180.7c32-24.5,52-62.3,52-104.9v-.9C1000.7,59.8,939.5,.5,859.3,.5ZM325,176.5l26.6-70.5,26.4,70.5h-53Zm316.4-72.3h-.2v-.2c0,15.9-12.7,25.1-33.3,25.1h-37.4v-50.7h37.8c20.2,0,33.1,8.2,33.1,24.9v.9Zm271.9,32.1c0,30.5-20.8,57.8-53.9,57.8s-54.8-27.7-54.8-58.5v-.9c0-30.5,20.8-57.8,53.9-57.8s54.8,27.7,54.8,58.5v.9Z"/></svg>