<?xml version="1.0" encoding="UTF-8"?><svg id="a" xmlns="http://www.w3.org/2000/svg" viewBox="0 0 1006.38 328.52"><defs><style>.d{stroke:#343090;}.d,.e{fill:#343090;}.f{fill:none;}</style></defs><g id="b"><path class="d" d="M865.82,.62c-61,0-111.5,34.8-132.2,84.2C724.25-20.6,565.92,10.59,489.72,6.12V214.12L401.62,4.12h-86.2l-81,192.6,29.2,43.6h312.7v-49.4h18.5l32.9,49.4h98.4l-43.8-63.6c17.8-8.6,31.6-20.6,40.4-35.9,1.3,40.6,20.6,76.1,50.9,99.7h180.7C1055.71,166,997.73-4.76,865.82,.62ZM331.52,176.62l26.6-70.5,26.4,70.5h-53Zm316.2-72.5c1.42,32.02-48.67,24.37-70.7,25.1v-50.7c22.06,.97,73.55-7.56,70.9,25.8h-.2v-.2Zm272.1,32.3c.22,77.55-110.16,75.13-108.7-1.6-.22-77.55,110.16-75.12,108.7,1.6Z"/><path class="e" d="M200.22,176.82c54.26-20.28,68.34-102.59,27.5-141C195.45-7.55,60.13,9.07,7.02,6.12V240.62H93.82v-49.4h18.5l32.41,49.4h98.32l-42.82-63.8Zm-35.4-72.7c1.42,32.08-48.86,24.35-70.9,25.1v-50.7c21.98,.99,73.35-7.56,70.9,25.6Z"/></g><g id="c"><rect class="f" y="244.05" width="982.08" height="84.47"/><path class="d" d="M40.86,294.83H16.92l-5.95,14.79H3.51l22.87-55.35h5.18l22.87,55.35h-7.93l-5.64-14.79Zm-20.89-6.86h17.99l-9.15-22.26-8.84,22.26Z"/><path class="d" d="M85.84,282.02c0,2.9,.61,5.64,1.68,8.23,.91,2.59,2.59,4.88,4.27,6.86s3.96,3.66,6.56,4.57c2.59,1.37,5.18,1.68,8.23,1.68,3.2,0,6.25-.61,9.15-1.98,2.9-1.37,5.18-2.9,7.47-4.88l4.88,4.88c-2.59,2.59-5.95,4.88-9.45,6.56-3.66,1.68-7.47,2.29-11.74,2.29-3.96,0-7.47-.61-11.13-2.29-3.2-1.68-6.25-3.66-8.84-6.25-2.59-2.59-4.57-5.64-5.95-9.15-1.37-3.66-1.98-7.17-1.98-10.83,0-3.96,.61-7.47,1.98-10.83,1.37-3.66,3.2-6.56,5.95-9.15s5.64-4.57,8.84-6.25c3.2-1.68,7.17-2.29,11.13-2.29s7.93,.61,11.44,2.29c3.66,1.68,6.56,3.66,9.15,6.25l-5.18,4.57c-1.98-1.98-4.27-3.66-6.86-4.57-2.59-1.37-5.18-1.68-8.54-1.68-2.9,0-5.64,.61-8.23,1.68-2.59,1.37-4.57,2.59-6.56,4.88s-3.2,4.27-4.27,6.86c-1.07,2.59-1.98,5.64-1.98,8.54Z"/><path class="d" d="M190.9,294.83h-23.94l-5.95,14.79h-7.47l22.87-55.35h5.18l22.87,55.35h-7.93l-5.64-14.79Zm-20.89-6.86h17.99l-9.15-22.26-8.84,22.26Z"/><path class="d" d="M234.2,254.12h18.3c4.57,0,8.54,.61,12.2,2.29,3.66,1.37,6.56,3.2,8.84,5.95,2.29,2.59,4.27,5.64,5.64,8.84s1.98,6.86,1.98,10.83-.61,7.47-1.98,10.83c-1.37,3.2-3.2,6.25-5.64,8.84-2.29,2.59-5.64,4.57-8.84,5.95-3.66,1.37-7.47,1.98-12.2,1.98h-18.3v-55.5Zm39.34,27.9c0-2.9-.3-5.95-1.37-8.54-.91-2.59-2.29-4.88-4.27-6.56-1.98-1.98-3.96-3.2-6.56-4.57-2.59-.91-5.64-1.68-8.84-1.68h-11.13v42.24h11.13c3.2,0,6.25-.61,8.84-1.68,2.59-.91,4.88-2.59,6.56-4.27,1.98-1.98,3.2-3.96,4.27-6.56,.76-2.9,1.37-5.49,1.37-8.39Z"/><path class="d" d="M311.5,254.12h35.98v6.56h-28.82v16.77h25.16v6.56h-25.16v18.75h30.19v6.56h-37.05v-55.04h-.3v-.15Z"/><path class="d" d="M438.36,309.47h-7.17v-41.32l-21.35,33.39h-1.98l-21.35-33.39v41.32h-7.17v-55.35h6.56l22.87,36.44,22.87-36.44h6.56v55.35h.15Z"/><path class="d" d="M493.4,309.47h-6.86v-24.24l-19.97-31.1h8.54l15.09,23.94,15.09-23.94h8.54l-20.13,31.1v24.24h-.3Z"/><path class="d" d="M602.57,298.03l17.38-43.91h7.47l-22.26,55.35h-5.18l-22.41-55.35h7.47l17.53,43.91Z"/><path class="d" d="M662.5,309.47h-7.17v-55.35h7.17v55.35Z"/><path class="d" d="M695.58,254.12h18.3c4.57,0,8.54,.61,12.2,2.29,3.66,1.37,6.56,3.2,8.84,5.95,2.29,2.59,4.27,5.64,5.64,8.84s1.98,6.86,1.98,10.83-.61,7.47-1.98,10.83c-1.37,3.2-3.2,6.25-5.64,8.84-2.29,2.59-5.64,4.57-8.84,5.95-3.66,1.37-7.47,1.98-12.2,1.98h-18.3v-55.5Zm39.34,27.9c0-2.9-.3-5.95-1.37-8.54-.91-2.59-2.29-4.88-4.27-6.56-1.98-1.98-3.96-3.2-6.56-4.57-2.59-.91-5.64-1.68-8.84-1.68h-11.13v42.24h11.13c3.2,0,6.25-.61,8.84-1.68,2.59-.91,4.88-2.59,6.56-4.27,1.98-1.98,3.2-3.96,4.27-6.56,1.07-2.9,1.37-5.49,1.37-8.39Z"/><path class="d" d="M772.89,254.12h35.98v6.56h-28.82v16.77h25.16v6.56h-25.16v18.75h30.19v6.56h-37.05v-55.04h-.3v-.15Z"/><path class="d" d="M836.77,282.02c0-3.96,.61-7.47,1.98-10.83,1.37-3.66,3.2-6.56,5.95-9.15,2.59-2.59,5.64-4.57,8.84-6.25s7.17-2.29,11.13-2.29,7.47,.61,11.13,2.29c3.2,1.68,6.25,3.66,8.84,6.25,2.59,2.59,4.57,5.64,5.95,9.15,1.37,3.66,1.98,7.17,1.98,10.83,0,3.96-.61,7.47-1.98,10.83s-3.2,6.56-5.95,9.15c-2.59,2.59-5.64,4.57-8.84,6.25s-7.17,2.29-11.13,2.29-7.47-.61-11.13-2.29c-3.2-1.68-6.25-3.66-8.84-6.25-2.59-2.59-4.57-5.64-5.95-9.15-1.22-3.35-1.98-7.17-1.98-10.83Zm7.62,0c0,2.9,.61,5.64,1.68,8.23,.91,2.59,2.59,4.88,4.27,6.86s3.96,3.66,6.56,4.57c2.59,1.37,5.18,1.68,8.23,1.68s5.64-.61,8.23-1.68c2.59-1.37,4.57-2.59,6.56-4.57s3.2-4.27,4.27-6.86c.91-2.59,1.68-5.18,1.68-8.23s-.61-5.64-1.68-8.23c-.91-2.59-2.59-4.88-4.27-6.86-1.98-1.98-3.96-3.66-6.56-4.88-2.59-1.37-5.18-1.68-8.23-1.68s-5.64,.61-8.23,1.68c-2.59,1.37-4.57,2.59-6.56,4.88s-3.2,4.27-4.27,6.86c-1.07,2.59-1.68,5.34-1.68,8.23Z"/><path class="d" d="M950.21,264.64c-1.68-1.37-3.2-2.59-5.18-3.66s-3.96-1.37-6.25-1.37c-1.98,0-3.66,.3-4.88,.61-1.37,.3-2.29,.91-3.2,1.98-.61,.61-1.37,1.68-1.68,2.59s-.61,1.98-.61,2.9c0,1.98,.61,3.66,1.98,4.88,1.37,1.37,3.66,2.59,6.56,3.2l6.86,1.98c4.88,1.37,8.54,3.2,11.13,5.95,2.59,2.59,3.96,5.95,3.96,9.76,0,1.98-.3,4.27-1.37,6.25s-1.98,3.66-3.96,5.18c-1.68,1.68-3.66,2.59-6.25,3.66s-5.18,1.37-8.54,1.37c-1.68,0-3.2-.3-5.18-.61-1.98-.3-3.2-.91-5.18-1.68-1.68-.61-3.2-1.68-4.57-2.59-1.37-.91-2.9-2.29-3.96-3.66l5.18-4.57c2.29,2.29,4.57,4.27,6.86,5.18,2.29,.91,4.57,1.68,6.86,1.68,1.98,0,3.96-.3,5.64-.61,1.68-.61,2.9-1.37,3.96-1.98,.91-.91,1.68-1.98,2.29-2.9,.61-1.37,.61-2.29,.61-3.66,0-2.59-.61-4.27-1.98-5.95-1.37-1.37-3.66-2.59-7.17-3.66l-7.17-2.29c-4.57-1.37-8.23-3.2-10.52-5.64-2.29-2.29-3.66-5.18-3.66-8.84,0-1.98,.3-3.66,1.37-5.18,.61-1.68,1.98-3.2,3.66-4.57,1.68-1.37,3.2-2.29,5.64-3.2,2.29-.91,4.57-1.37,7.47-1.37,2.59,0,5.64,.61,8.54,1.68,2.9,.91,5.64,2.59,7.47,4.88l-4.73,4.27Z"/></g></svg>
