<?xml version="1.0" encoding="utf-8"?>
<!-- Generator: Adobe Illustrator 26.2.1, SVG Export Plug-In . SVG Version: 6.00 Build 0)  -->
<svg version="1.1" id="Layer_1" xmlns="http://www.w3.org/2000/svg" xmlns:xlink="http://www.w3.org/1999/xlink" x="0px" y="0px"
	 viewBox="0 0 1080 1080" style="enable-background:new 0 0 1080 1080;" xml:space="preserve">
<style type="text/css">
	.st0{fill:#343090;}
	.st1{fill:#343090;stroke:#343090;}
	.st2{fill:none;}
</style>
<g id="Raro">
	<path class="st0" d="M233.5,591.7c31.6-15.3,51.1-41.3,51.1-79.1V512c0-26.6-8.2-45.8-23.6-61.3C243,432.4,213.5,421,167.3,421
		h-127v234.5h86.8v-49.4h18.5l82.1,124.9H327L233.5,591.7z M198.1,519c0,15.9-12.7,25.1-33.3,25.1h-37.6v-50.7H165
		c20.2,0,33.1,8.2,33.1,24.9V519z"/>
	<path class="st1" d="M899.1,415.5c-61,0-111.5,34.8-132.2,84.2c-2.4-20.2-9.9-35.9-23.2-49C725.5,432.4,696.2,421,650,421H523v208
		l-88.1-210h-86.2l-81,192.6l29.2,43.6h312.7v-49.4h18.5l32.9,49.4h98.4l-43.8-63.6c17.8-8.6,31.6-20.6,40.4-35.9
		c1.3,40.6,20.6,76.1,50.9,99.7h180.7c32-24.5,52-62.3,52-104.9v-0.9C1040.5,474.8,979.3,415.5,899.1,415.5z M364.8,591.5l26.6-70.5
		l26.4,70.5H364.8z M681,519c0,15.9-12.7,25.1-33.3,25.1h-37.4v-50.7h37.8c20.2,0,33.1,8.2,33.1,24.9v0.9H681V519z M953.1,551.3
		c0,30.5-20.8,57.8-53.9,57.8c-33.3,0-54.8-27.7-54.8-58.5v-0.9c0-30.5,20.8-57.8,53.9-57.8c33.3,0,54.8,27.7,54.8,58.5V551.3z"/>
</g>
<g id="AcademyVideos">
	<rect x="349.2" y="688" class="st2" width="644.1" height="55.4"/>
	<path class="st1" d="M376,721.3h-15.7l-3.9,9.7h-4.9l15-36.3h3.4l15,36.3h-5.2L376,721.3z M362.3,716.8h11.8l-6-14.6L362.3,716.8z"
		/>
	<path class="st1" d="M405.5,712.9c0,1.9,0.4,3.7,1.1,5.4c0.6,1.7,1.7,3.2,2.8,4.5s2.6,2.4,4.3,3c1.7,0.9,3.4,1.1,5.4,1.1
		c2.1,0,4.1-0.4,6-1.3c1.9-0.9,3.4-1.9,4.9-3.2l3.2,3.2c-1.7,1.7-3.9,3.2-6.2,4.3c-2.4,1.1-4.9,1.5-7.7,1.5c-2.6,0-4.9-0.4-7.3-1.5
		c-2.1-1.1-4.1-2.4-5.8-4.1c-1.7-1.7-3-3.7-3.9-6c-0.9-2.4-1.3-4.7-1.3-7.1c0-2.6,0.4-4.9,1.3-7.1c0.9-2.4,2.1-4.3,3.9-6
		s3.7-3,5.8-4.1c2.1-1.1,4.7-1.5,7.3-1.5s5.2,0.4,7.5,1.5c2.4,1.1,4.3,2.4,6,4.1l-3.4,3c-1.3-1.3-2.8-2.4-4.5-3
		c-1.7-0.9-3.4-1.1-5.6-1.1c-1.9,0-3.7,0.4-5.4,1.1c-1.7,0.9-3,1.7-4.3,3.2s-2.1,2.8-2.8,4.5C406.1,709,405.5,711,405.5,712.9z"/>
	<path class="st1" d="M474.4,721.3h-15.7l-3.9,9.7h-4.9l15-36.3h3.4l15,36.3h-5.2L474.4,721.3z M460.7,716.8h11.8l-6-14.6
		L460.7,716.8z"/>
	<path class="st1" d="M502.8,694.6h12c3,0,5.6,0.4,8,1.5c2.4,0.9,4.3,2.1,5.8,3.9c1.5,1.7,2.8,3.7,3.7,5.8c0.9,2.1,1.3,4.5,1.3,7.1
		s-0.4,4.9-1.3,7.1c-0.9,2.1-2.1,4.1-3.7,5.8c-1.5,1.7-3.7,3-5.8,3.9c-2.4,0.9-4.9,1.3-8,1.3h-12V694.6z M528.6,712.9
		c0-1.9-0.2-3.9-0.9-5.6c-0.6-1.7-1.5-3.2-2.8-4.3c-1.3-1.3-2.6-2.1-4.3-3c-1.7-0.6-3.7-1.1-5.8-1.1h-7.3v27.7h7.3
		c2.1,0,4.1-0.4,5.8-1.1c1.7-0.6,3.2-1.7,4.3-2.8c1.3-1.3,2.1-2.6,2.8-4.3C528.2,716.5,528.6,714.8,528.6,712.9z"/>
	<path class="st1" d="M553.5,694.6h23.6v4.3h-18.9v11h16.5v4.3h-16.5v12.3H578v4.3h-24.3v-36.1H553.5z"/>
	<path class="st1" d="M636.7,730.9H632v-27.1l-14,21.9h-1.3l-14-21.9v27.1H598v-36.3h4.3l15,23.9l15-23.9h4.3V730.9z"/>
	<path class="st1" d="M672.8,730.9h-4.5V715l-13.1-20.4h5.6l9.9,15.7l9.9-15.7h5.6L673,715v15.9H672.8z"/>
	<path class="st1" d="M744.4,723.4l11.4-28.8h4.9l-14.6,36.3h-3.4L728,694.6h4.9L744.4,723.4z"/>
	<path class="st1" d="M783.7,730.9H779v-36.3h4.7V730.9z"/>
	<path class="st1" d="M805.4,694.6h12c3,0,5.6,0.4,8,1.5c2.4,0.9,4.3,2.1,5.8,3.9c1.5,1.7,2.8,3.7,3.7,5.8c0.9,2.1,1.3,4.5,1.3,7.1
		s-0.4,4.9-1.3,7.1c-0.9,2.1-2.1,4.1-3.7,5.8c-1.5,1.7-3.7,3-5.8,3.9c-2.4,0.9-4.9,1.3-8,1.3h-12V694.6z M831.2,712.9
		c0-1.9-0.2-3.9-0.9-5.6c-0.6-1.7-1.5-3.2-2.8-4.3c-1.3-1.3-2.6-2.1-4.3-3c-1.7-0.6-3.7-1.1-5.8-1.1h-7.3v27.7h7.3
		c2.1,0,4.1-0.4,5.8-1.1c1.7-0.6,3.2-1.7,4.3-2.8c1.3-1.3,2.1-2.6,2.8-4.3C831,716.5,831.2,714.8,831.2,712.9z"/>
	<path class="st1" d="M856.1,694.6h23.6v4.3h-18.9v11h16.5v4.3h-16.5v12.3h19.8v4.3h-24.3v-36.1H856.1z"/>
	<path class="st1" d="M898,712.9c0-2.6,0.4-4.9,1.3-7.1c0.9-2.4,2.1-4.3,3.9-6c1.7-1.7,3.7-3,5.8-4.1s4.7-1.5,7.3-1.5
		s4.9,0.4,7.3,1.5c2.1,1.1,4.1,2.4,5.8,4.1c1.7,1.7,3,3.7,3.9,6c0.9,2.4,1.3,4.7,1.3,7.1c0,2.6-0.4,4.9-1.3,7.1s-2.1,4.3-3.9,6
		c-1.7,1.7-3.7,3-5.8,4.1c-2.1,1.1-4.7,1.5-7.3,1.5s-4.9-0.4-7.3-1.5c-2.1-1.1-4.1-2.4-5.8-4.1c-1.7-1.7-3-3.7-3.9-6
		C898.5,717.8,898,715.3,898,712.9z M903,712.9c0,1.9,0.4,3.7,1.1,5.4c0.6,1.7,1.7,3.2,2.8,4.5s2.6,2.4,4.3,3
		c1.7,0.9,3.4,1.1,5.4,1.1s3.7-0.4,5.4-1.1c1.7-0.9,3-1.7,4.3-3c1.3-1.3,2.1-2.8,2.8-4.5c0.6-1.7,1.1-3.4,1.1-5.4s-0.4-3.7-1.1-5.4
		c-0.6-1.7-1.7-3.2-2.8-4.5c-1.3-1.3-2.6-2.4-4.3-3.2c-1.7-0.9-3.4-1.1-5.4-1.1s-3.7,0.4-5.4,1.1c-1.7,0.9-3,1.7-4.3,3.2
		s-2.1,2.8-2.8,4.5C903.4,709.2,903,711,903,712.9z"/>
	<path class="st1" d="M972.4,701.5c-1.1-0.9-2.1-1.7-3.4-2.4s-2.6-0.9-4.1-0.9c-1.3,0-2.4,0.2-3.2,0.4c-0.9,0.2-1.5,0.6-2.1,1.3
		c-0.4,0.4-0.9,1.1-1.1,1.7s-0.4,1.3-0.4,1.9c0,1.3,0.4,2.4,1.3,3.2c0.9,0.9,2.4,1.7,4.3,2.1l4.5,1.3c3.2,0.9,5.6,2.1,7.3,3.9
		c1.7,1.7,2.6,3.9,2.6,6.4c0,1.3-0.2,2.8-0.9,4.1s-1.3,2.4-2.6,3.4c-1.1,1.1-2.4,1.7-4.1,2.4s-3.4,0.9-5.6,0.9
		c-1.1,0-2.1-0.2-3.4-0.4c-1.3-0.2-2.1-0.6-3.4-1.1c-1.1-0.4-2.1-1.1-3-1.7c-0.9-0.6-1.9-1.5-2.6-2.4l3.4-3c1.5,1.5,3,2.8,4.5,3.4
		c1.5,0.6,3,1.1,4.5,1.1c1.3,0,2.6-0.2,3.7-0.4c1.1-0.4,1.9-0.9,2.6-1.3c0.6-0.6,1.1-1.3,1.5-1.9c0.4-0.9,0.4-1.5,0.4-2.4
		c0-1.7-0.4-2.8-1.3-3.9c-0.9-0.9-2.4-1.7-4.7-2.4l-4.7-1.5c-3-0.9-5.4-2.1-6.9-3.7c-1.5-1.5-2.4-3.4-2.4-5.8c0-1.3,0.2-2.4,0.9-3.4
		c0.4-1.1,1.3-2.1,2.4-3c1.1-0.9,2.1-1.5,3.7-2.1c1.5-0.6,3-0.9,4.9-0.9c1.7,0,3.7,0.4,5.6,1.1c1.9,0.6,3.7,1.7,4.9,3.2L972.4,701.5
		z"/>
</g>
</svg>
