<?xml version="1.0" encoding="utf-8"?>
<!-- Generator: Adobe Illustrator 26.2.1, SVG Export Plug-In . SVG Version: 6.00 Build 0)  -->
<svg version="1.1" id="Layer_1" xmlns="http://www.w3.org/2000/svg" xmlns:xlink="http://www.w3.org/1999/xlink" x="0px" y="0px"
	 viewBox="0 0 4098 4098" style="enable-background:new 0 0 4098 4098;" xml:space="preserve">
<style type="text/css">
	.st0{fill:#343090;}
	.st1{fill:none;}
	.st2{fill:#343090;stroke:#343090;stroke-miterlimit:10;}
</style>
<g id="Raro">
	<path class="st0" d="M830.3,2515c126.2-61.3,204.5-166.3,204.5-318v-3c0-106.8-32.8-184.5-94.7-246.4
		c-72.2-73.4-190.6-119-374.5-119h-508v941.9h347.1v-198.5h74L807.9,3074h396.9L830.3,2515z M688.9,2223.1
		c0,64.3-51,100.7-133.5,100.7H404.9v-203.9h151.7c80.7,0,132.3,32.8,132.3,99.5V2223.1z"/>
	<path class="st0" d="M3493.4,1806.2c-244.6,0-446.1,139.6-528.6,338c-9.1-81.3-39.4-144.4-92.9-196.6
		c-73.4-73.4-190.6-119-374.5-119h-508v836.3l-352-843.6h-345.3l-323.5,774.4l117.1,175.4h1250.8v-198.5h74l131.1,198.5h393.9
		l-174.8-255.5c71-34.6,126.2-82.5,162-144.4c4.9,163.3,82.5,305.9,203.3,400.5H3849c128.1-98.9,207.6-250.6,207.6-421.8v-3
		C4059,2044.7,3813.8,1806.2,3493.4,1806.2z M1355.9,2514.4l106.8-283.4l105.6,283.4H1355.9z M2620.7,2223.1
		c0,64.3-51,100.7-133.5,100.7h-149.9v-203.9H2489c80.1,0,132.3,32.8,132.3,99.5v3h-0.6V2223.1z M3708.8,2352.4
		c0,122-83.8,232.4-216.1,232.4c-133.5,0-219.1-111.1-219.1-235.5v-3c0-122,83.8-232.4,216.1-232.4c133.5,0,219.1,111.1,219.1,235.5
		V2352.4z"/>
</g>
<g id="Logo">
	<path class="st0" d="M2062,1188c0,0,272.7-126.9,447.2-208.2c0,0,11.9-7.8,25.1-0.4c12.7,7.4,11.9,20.5,11.9,20.5v327.3
		c0,6.2-2.5,11.9-7,16.8c-62,63.2-133.9,113.4-214,147.9c-82.6,37-170.8,54.6-261.6,54.6c-90.8,0-179.1-18.9-261.6-54.6
		c-26.3-11.9-52.6-25.1-77.6-40.7c-11.9-5.7-15.6-21.4-8.2-32c6.2-11.9,21.4-15.6,32.4-8.2c22.6,13.1,46.4,26.3,71.9,37
		c75.6,33.3,157.7,49.7,241.5,49.7s165.9-16.8,243.5-50.1c70.6-30.8,135.1-75.2,191-131v-280.1l-423.8,199.2
		c-3.7,1.2-7,2.5-10.7,2.5c-3.7,0-7-1.2-10.7-2.5l-326.1-152.4c-11.9-6.2-18.1-20.1-11.9-32c6.2-11.9,20.1-18.1,32.4-11.9L2062,1188
		z"/>
	<path class="st0" d="M2935.6,783.1l-864.5-407.8c-6.2-3.7-14.4-3.7-20.1,0l-866.2,407.8c-8.2,3.7-13.1,11.9-13.1,21.4
		c0,9.4,4.9,18.1,13.1,21.4L1478,964.2c11.9,6.2,26.3,0,32-11.9c6.2-11.9,0-26.3-11.9-32l-248.1-117l810.3-379.1l808.7,380.3
		L2611.5,926c-11.9,6.2-16.8,20.1-11.9,32c3.7,8.2,13.1,13.1,21.4,13.1c3.7,0,7-1.2,10.7-2.5l303.9-142.9
		c8.2-3.7,13.1-11.9,13.1-21.4S2943.8,786.4,2935.6,783.1z"/>
	<path class="st0" d="M2081.3,765.4c6.2,11.9,1.2,26.3-10.7,32l-442.3,216.8v627.1c0,13.1-10.7,23.8-23.8,23.8
		c-13.1,0-23.8-10.7-23.8-23.8v-651c0,0,0-4.1,3.7-6.6c3.7-2.5,4.9-2.9,4.9-2.9l460-226.7C2061.2,748.6,2075.6,753.5,2081.3,765.4z"
		/>
</g>
<g id="AcademyVideos">
	<rect x="57.7" y="3243.1" class="st1" width="4453.4" height="645.6"/>
	<path class="st2" d="M228.4,3463.3h-99.6l-24.7,64.8H72l95.8-242.1h21.8l95.8,242.1h-32.2L228.4,3463.3z M141.2,3433.4h74.9
		l-37.9-96.6L141.2,3433.4z"/>
	<path class="st2" d="M414.3,3407.5c0,13,1.9,23.9,6.6,35.9s10.4,20.9,18,29.9s17.1,15.9,27.5,20.9c10.4,5,21.8,8,34.1,8
		c13.3,0,25.6-3,37.9-8c12.3-5,21.8-13,31.3-21.9l19.9,20.9c-11.4,12-24.7,21.9-39.8,28.9c-15.2,7-31.3,11-49.3,11
		c-16.1,0-32.2-3-46.5-10s-26.6-15.9-37-26.9c-10.4-11-18-24.9-24.7-39.9c-5.7-14.9-8.5-30.9-8.5-47.8s2.8-32.9,8.5-47.8
		c5.7-14.9,14.2-27.9,24.7-39.9c10.4-11,22.8-19.9,37-26.9s29.4-10,46.5-10s32.2,3,46.5,10s26.6,15.9,37.9,27.9l-20.9,19.9
		c-8.5-9-18-14.9-28.5-20.9c-10.4-5-22.8-8-35.1-8c-12.3,0-23.7,3-34.1,8c-10.4,5-19.9,12-27.5,20.9s-13.3,18.9-18,29.9
		S414.3,3394.5,414.3,3407.5z"/>
	<path class="st2" d="M851.5,3463.3h-99.6l-24.7,64.8H695l95.8-242.1h21.8l95.8,242.1h-32.2L851.5,3463.3z M764.3,3433.4h74.9
		l-37.9-96.6L764.3,3433.4z"/>
	<path class="st2" d="M1030.7,3285.9h75.9c19,0,35.1,3,50.3,9s27.5,14.9,37,25.9c10.4,11,18,23.9,23.7,37.9
		c5.7,14.9,8.5,30.9,8.5,47.8s-2.8,32.9-8.5,47.8c-5.7,14.9-13.3,27.9-23.7,37.9c-10.4,11-22.8,18.9-37,25.9c-14.2,7-31.3,9-50.3,9
		h-75.9V3285.9z M1193.9,3407.5c0-13-1.9-24.9-5.7-36.9c-3.8-11-9.5-20.9-17.1-28.9c-7.6-8-17.1-14.9-27.5-18.9c-10.4-5-22.8-7-37-7
		h-46.5v183.3h46.5c14.2,0,26.6-2,37-7c10.4-5,19.9-11,27.5-18.9c7.6-8,13.3-17.9,17.1-28.9
		C1192,3432.4,1193.9,3420.4,1193.9,3407.5z"/>
	<path class="st2" d="M1351.3,3285.9h149.8v28.9h-119.5v73.7h104.3v28.9h-104.3v81.7h124.2v28.9h-154.6V3285.9z"/>
	<path class="st2" d="M1878.5,3528h-29.4v-180.3l-88.2,145.5h-7.6l-89.1-146.5V3527h-29.4v-242.1h26.6l95.8,158.4l95.8-158.4h26.6
		V3528H1878.5z"/>
	<path class="st2" d="M2108,3528h-29.4v-105.6l-83.5-136.5h35.1l63.5,104.6l63.5-104.6h35.1l-83.5,135.5V3528H2108z"/>
	<path class="st2" d="M2560.4,3477.2l72.1-191.3h32.2l-92,242.1h-21.8l-92-242.1h32.2L2560.4,3477.2z"/>
	<path class="st2" d="M2808.9,3528h-29.4v-242.1h29.4V3528z"/>
	<path class="st2" d="M2947.3,3285.9h75.9c19,0,35.1,3,50.3,9s27.5,14.9,37,25.9c10.4,11,18,23.9,23.7,37.9
		c5.7,14.9,8.5,30.9,8.5,47.8s-2.8,32.9-8.5,47.8c-5.7,14.9-13.3,27.9-23.7,37.9c-10.4,11-22.8,18.9-37,25.9c-14.2,7-31.3,9-50.3,9
		h-75.9V3285.9z M3110.4,3407.5c0-13-1.9-24.9-5.7-36.9c-3.8-11-9.5-20.9-17.1-28.9c-7.6-8-17.1-14.9-27.5-18.9c-10.4-5-22.8-7-37-7
		h-46.5v183.3h46.5c14.2,0,26.6-2,37-7c10.4-5,19.9-11,27.5-18.9c7.6-8,13.3-17.9,17.1-28.9
		C3108.5,3432.4,3110.4,3420.4,3110.4,3407.5z"/>
	<path class="st2" d="M3267.9,3285.9h149.8v28.9h-119.5v73.7h104.3v28.9h-104.3v81.7h124.2v28.9h-154.6V3285.9z"/>
	<path class="st2" d="M3533.4,3407.5c0-16.9,2.8-32.9,8.5-47.8c5.7-14.9,14.2-27.9,24.7-39.9c10.4-11,22.8-19.9,37-26.9
		c14.2-7,29.4-10,46.5-10c16.1,0,32.2,3,46.5,10c14.2,7,26.6,15.9,37,26.9c10.4,11,18,24.9,24.7,39.9c6.6,14.9,8.5,30.9,8.5,47.8
		c0,16.9-2.8,32.9-8.5,47.8c-5.7,14.9-14.2,27.9-24.7,39.9c-10.4,11-22.8,19.9-37,26.9c-14.2,7-29.4,10-46.5,10
		c-16.1,0-32.2-3-46.5-10c-14.2-7-26.6-15.9-37-26.9c-10.4-11-18-24.9-24.7-39.9C3536.2,3440.4,3533.4,3424.4,3533.4,3407.5z
		 M3563.7,3407.5c0,13,1.9,23.9,6.6,35.9s10.4,20.9,18,29.9s17.1,15.9,27.5,20.9c10.4,5,21.8,8,34.1,8s23.7-3,34.1-8
		c10.4-5,19.9-12,27.5-20.9c7.6-9,13.3-18.9,18-29.9s6.6-22.9,6.6-35.9c0-13-1.9-23.9-6.6-35.9s-10.4-20.9-18-29.9
		c-7.6-9-17.1-15.9-27.5-20.9c-10.4-5-21.8-8-34.1-8s-23.7,3-34.1,8c-10.4,5-19.9,12-27.5,20.9s-13.3,18.9-18,29.9
		S3563.7,3394.5,3563.7,3407.5z"/>
	<path class="st2" d="M4003.8,3332.8c-6.6-6-13.3-12-21.8-15.9c-7.6-4-17.1-6-26.6-6c-8.5,0-15.2,1-20.9,3c-5.7,2-9.5,5-13.3,8
		c-2.8,3-5.7,7-6.6,12c-1.9,4-1.9,9-1.9,13c0,8,2.8,15.9,8.5,21.9c5.7,6,15.2,11,27.5,14.9l29.4,8c19.9,6,36,14.9,46.5,25.9
		c10.4,12,16.1,25.9,16.1,43.8c0,9-1.9,17.9-5.7,26.9s-8.5,15.9-16.1,22.9c-6.6,7-15.2,12-25.6,15.9c-10.4,4-21.8,6-35.1,6
		c-6.6,0-14.2-1-20.9-2c-7.6-2-14.2-4-20.9-7s-13.3-7-19.9-12c-6.6-5-11.4-10-16.1-15.9l20.9-18.9c9.5,11,19,17.9,28.4,21.9
		c9.5,4,19,7,29.4,7c8.5,0,16.1-1,22.8-3c6.6-2,11.4-5,16.1-9s7.6-8,9.5-13c1.9-5,2.8-10,2.8-15.9c0-11-2.8-18.9-8.5-25.9
		c-5.7-6-15.2-12-29.4-15.9l-30.3-10c-19-6-34.1-13.9-43.6-23.9c-9.5-10-14.2-22.9-14.2-38.9c0-8,1.9-15.9,4.7-23.9
		c3.8-8,8.5-13.9,14.2-19.9c6.6-6,14.2-11,22.8-13.9c9.5-4,19-5,30.3-5s22.8,2,35.1,7c12.3,5,22.8,12,31.3,21.9L4003.8,3332.8z"/>
</g>
<g>
</g>
<g>
</g>
<g>
</g>
<g>
</g>
<g>
</g>
<g>
</g>
</svg>
