<svg width="40" height="40" viewBox="0 0 40 40" fill="none" xmlns="http://www.w3.org/2000/svg">
<path fill-rule="evenodd" clip-rule="evenodd" d="M20 0C8.95433 0 0 8.95433 0 20C0 31.0457 8.95433 40 20 40C31.0457 40 40 31.0457 40 20C40 8.95433 31.0457 0 20 0ZM15.6028 9.39775C16.7405 9.346 17.1041 9.33333 20.001 9.33333H19.9977C22.8955 9.33333 23.2577 9.346 24.3955 9.39775C25.5311 9.44975 26.3066 9.62958 26.9867 9.89333C27.6888 10.1656 28.2822 10.53 28.8755 11.1233C29.4689 11.7162 29.8333 12.3113 30.1067 13.0129C30.3689 13.6912 30.5489 14.4663 30.6022 15.6018C30.6533 16.7397 30.6667 17.1032 30.6667 20.0001C30.6667 22.897 30.6533 23.2597 30.6022 24.3975C30.5489 25.5326 30.3689 26.3079 30.1067 26.9864C29.8333 27.6877 29.4689 28.2828 28.8755 28.8758C28.2828 29.4691 27.6887 29.8344 26.9873 30.1069C26.3086 30.3707 25.5326 30.5504 24.3971 30.6024C23.2593 30.6542 22.8968 30.6669 19.9997 30.6669C17.103 30.6669 16.7397 30.6542 15.6018 30.6024C14.4665 30.5504 13.6912 30.3707 13.0125 30.1069C12.3113 29.8344 11.7162 29.4691 11.1236 28.8758C10.5304 28.2828 10.166 27.6877 9.89333 26.9862C9.62975 26.3079 9.45 25.5328 9.39775 24.3972C9.34625 23.2595 9.33333 22.897 9.33333 20.0001C9.33333 17.1032 9.34667 16.7394 9.39758 15.6016C9.44867 14.4665 9.62867 13.6912 9.89308 13.0127C10.1664 12.3113 10.5309 11.7162 11.1242 11.1233C11.7172 10.5302 12.3123 10.1657 13.0138 9.89333C13.6921 9.62958 14.4672 9.44975 15.6028 9.39775Z" fill="#343090"/>
<path fill-rule="evenodd" clip-rule="evenodd" d="M19.044 11.2556C19.2298 11.2553 19.4297 11.2554 19.6453 11.2555L20.0009 11.2556C22.8489 11.2556 23.1865 11.2658 24.3112 11.3169C25.3512 11.3645 25.9156 11.5383 26.2916 11.6843C26.7894 11.8776 27.1443 12.1088 27.5174 12.4821C27.8908 12.8554 28.1218 13.211 28.3157 13.7088C28.4617 14.0843 28.6357 14.6488 28.683 15.6888C28.7341 16.8133 28.7452 17.151 28.7452 19.9977C28.7452 22.8444 28.7341 23.1822 28.683 24.3067C28.6354 25.3467 28.4617 25.9111 28.3157 26.2867C28.1223 26.7844 27.8908 27.1389 27.5174 27.512C27.1441 27.8853 26.7896 28.1165 26.2916 28.3099C25.9161 28.4565 25.3512 28.6298 24.3112 28.6773C23.1867 28.7285 22.8489 28.7396 20.0009 28.7396C17.1527 28.7396 16.8151 28.7285 15.6906 28.6773C14.6506 28.6293 14.0862 28.4556 13.7099 28.3096C13.2122 28.1163 12.8566 27.8851 12.4833 27.5118C12.1099 27.1384 11.8788 26.7838 11.685 26.2858C11.539 25.9103 11.365 25.3458 11.3177 24.3058C11.2666 23.1813 11.2563 22.8435 11.2563 19.995C11.2563 17.1466 11.2666 16.8106 11.3177 15.6861C11.3653 14.6461 11.539 14.0817 11.685 13.7057C11.8783 13.2078 12.1099 12.8523 12.4833 12.479C12.8566 12.1057 13.2122 11.8745 13.7099 11.6808C14.0859 11.5341 14.6506 11.3608 15.6906 11.3129C16.6746 11.2685 17.056 11.2552 19.044 11.2529V11.2556ZM25.6948 13.0268C24.9881 13.0268 24.4147 13.5994 24.4147 14.3063C24.4147 15.013 24.9881 15.5863 25.6948 15.5863C26.4014 15.5863 26.9748 15.013 26.9748 14.3063C26.9748 13.5997 26.4014 13.0263 25.6948 13.0263V13.0268ZM14.5231 20.0002C14.5231 16.9751 16.9756 14.5224 20.0007 14.5223C23.0258 14.5223 25.4778 16.975 25.4778 20.0002C25.4778 23.0253 23.026 25.4769 20.0009 25.4769C16.9758 25.4769 14.5231 23.0253 14.5231 20.0002Z" fill="#343090"/>
<path d="M20.0009 16.4445C21.9645 16.4445 23.5565 18.0364 23.5565 20.0001C23.5565 21.9637 21.9645 23.5557 20.0009 23.5557C18.0371 23.5557 16.4453 21.9637 16.4453 20.0001C16.4453 18.0364 18.0371 16.4445 20.0009 16.4445Z" fill="#343090"/>
</svg>
