<?xml version="1.0" encoding="UTF-8"?>
<svg xmlns="http://www.w3.org/2000/svg" viewBox="0 0 1777 1292.58">
  <g fill="#1c1c1c" stroke="none">
    <path d="M890.3,815.48s272.7-126.9,447.2-208.2c0,0,11.9-7.8,25.1-.4,12.7,7.4,11.9,20.5,11.9,20.5v327.3c0,6.2-2.5,11.9-7,16.8-62,63.2-133.9,113.4-214,147.9-82.6,37-170.8,54.6-261.6,54.6s-179.1-18.9-261.6-54.6c-26.3-11.9-52.6-25.1-77.6-40.7-11.9-5.7-15.6-21.4-8.2-32,6.2-11.9,21.4-15.6,32.4-8.2,22.6,13.1,46.4,26.3,71.9,37,75.6,33.3,157.7,49.7,241.5,49.7s165.9-16.8,243.5-50.1c70.6-30.8,135.1-75.2,191-131v-280.1l-423.8,199.2c-3.7,1.2-7,2.5-10.7,2.5s-7-1.2-10.7-2.5l-326.1-152.4c-11.9-6.2-18.1-20.1-11.9-32s20.1-18.1,32.4-11.9l316.3,148.6Z" />
    <path d="M1763.9,410.57L899.4,2.78c-6.2-3.7-14.4-3.7-20.1,0L13.1,410.57c-8.2,3.7-13.1,11.9-13.1,21.4s4.9,18.1,13.1,21.4l293.2,138.3c11.9,6.2,26.3,0,32-11.9,6.2-11.9,0-26.3-11.9-32l-248.1-117L888.6,51.68l808.7,380.3-257.5,121.5c-11.9,6.2-16.8,20.1-11.9,32,3.7,8.2,13.1,13.1,21.4,13.1,3.7,0,7-1.2,10.7-2.5l303.9-142.9c8.2-3.7,13.1-11.9,13.1-21.4s-4.9-17.9-13.1-21.2Z" />
    <path d="M909.6,392.88c6.2,11.9,1.2,26.3-10.7,32l-442.3,216.8v627.1c0,13.1-10.7,23.8-23.8,23.8s-23.8-10.7-23.8-23.8V617.78s0-4.1,3.7-6.6,4.9-2.9,4.9-2.9l460-226.7c11.9-5.5,26.3-.6,32,11.3Z" />
  </g>
</svg>
